<svg xmlns="http://www.w3.org/2000/svg" viewBox="0 0 14.75 14.75"><defs><style>.cls-1{fill:none;stroke:#cc3232;stroke-miterlimit:10;stroke-width:0.75px;}.cls-2{fill:#cc3232;}</style></defs><title>next</title><g id="Layer_2" data-name="Layer 2"><g id="Layer_1-2" data-name="Layer 1"><circle class="cls-1" cx="7.38" cy="7.37" r="7"/><path class="cls-2" d="M10.47,7.75H4.31c-.22,0-.42,0-.61,0l-.91-.25-.34-.11.34-.11L3.7,7c.19,0,.39,0,.61,0h6.16Z"/><path class="cls-2" d="M10.07,9.88a7.69,7.69,0,0,1,2.6-2.5,8,8,0,0,1-2.6-2.5H9.45a8.68,8.68,0,0,0,2.39,2.5,8.82,8.82,0,0,0-2.4,2.5Z"/><path class="cls-2" d="M8.58,9.88a7.69,7.69,0,0,1,2.6-2.5,8,8,0,0,1-2.6-2.5H8a8.68,8.68,0,0,0,2.39,2.5A8.82,8.82,0,0,0,8,9.88Z"/></g></g></svg>