<svg xmlns="http://www.w3.org/2000/svg" viewBox="0 0 43.91 43.91"><defs><style>.cls-1{fill:none;stroke:#cc3232;stroke-miterlimit:10;stroke-width:2.23px;}.cls-2{fill:#cc3232;}</style></defs><title>prev</title><g id="Layer_2" data-name="Layer 2"><g id="Layer_1-2" data-name="Layer 1"><circle class="cls-1" cx="21.96" cy="21.96" r="20.84"/><path class="cls-2" d="M12.75,20.84H32a3.31,3.31,0,0,1,.87,0c1.12.29,2.05.56,2.7.76l1,.34-1,.34c-.65.2-1.59.47-2.7.76a3.31,3.31,0,0,1-.87,0H12.75Z"/><path class="cls-2" d="M13.93,14.5A22.89,22.89,0,0,1,6.18,22a23.78,23.78,0,0,1,7.75,7.45h1.84A25.83,25.83,0,0,0,8.65,22,26.25,26.25,0,0,0,15.8,14.5Z"/><path class="cls-2" d="M18.37,14.5A22.9,22.9,0,0,1,10.61,22a23.77,23.77,0,0,1,7.75,7.45H20.2A25.84,25.84,0,0,0,13.09,22a26.27,26.27,0,0,0,7.15-7.45Z"/></g></g></svg>